#!OML:ASF G:\JayActor3\Patient Classification 1\Patient 1\Session 5\male.ASF
:FULLY-SPECIFIED
:DEGREES
777
root 17.3587 13.9238 -5.7641 -129.657 89.4084 -138.034
lowerback 29.687 -1.44484 1.91133
upperback 5.77558 -0.77978 -0.447027
thorax -9.88827 -0.198533 -1.36255
lowerneck -7.69951 -0.676655 1.0903
upperneck -3.80674 -0.863074 1.55754
head 0.0949245 -0.386145 0.275573
rclavicle 1.37161e-014 1.63003e-014
rhumerus -21.8234 3.29684 -84.7208
rradius 41.8347
rwrist -3.93563
rhand -21.0387 -8.67795
rfingers 7.12502
rthumb 5.33696 -38.5907
lclavicle 1.37161e-014 1.63003e-014
lhumerus -24.0766 -8.00224 82.6638
lradius 41.8063
lwrist 24.3121
lhand -17.8365 11.1922
lfingers 7.12502
lthumb 8.42812 41.004
rfemur -60.7072 -9.72862 19.6746
rtibia 111.977
rfoot -3.96475 -10.7601
rtoes 4.05783
lfemur -59.7105 0.0332657 -25.5709
ltibia 74.6781
lfoot -22.9151 12.3024
ltoes -3.81089
778
root 17.4858 13.9095 -5.78059 -126.921 89.5127 -135.139
lowerback 29.6608 -1.43905 1.84625
upperback 5.78709 -0.792501 -0.445226
thorax -9.86173 -0.202211 -1.31818
lowerneck -7.70596 -0.654144 1.10686
upperneck -3.73436 -0.837926 1.50539
head 0.117864 -0.374226 0.257491
rclavicle 9.0447e-015 2.39536e-014
rhumerus -21.7103 3.39212 -84.7402
rradius 42.0379
rwrist -3.95237
rhand -21.0023 -8.72889
rfingers 7.12502
rthumb 5.37217 -38.6408
lclavicle 9.0447e-015 2.39536e-014
lhumerus -23.9953 -7.98501 82.5709
lradius 41.9551
lwrist 24.3045
lhand -17.9232 11.2509
lfingers 7.12502
lthumb 8.34443 41.066
rfemur -62.0302 -9.76072 19.9962
rtibia 112.015
rfoot -6.04711 -11.1165
rtoes 2.91342
lfemur -59.1878 -0.160604 -25.6544
ltibia 75.148
lfoot -23.5218 12.8481
ltoes -4.09144
779
root 17.6123 13.8955 -5.7968 -120.856 89.6329 -128.921
lowerback 29.6373 -1.42783 1.77352
upperback 5.80092 -0.800952 -0.448134
thorax -9.83355 -0.203706 -1.27631
lowerneck -7.71559 -0.633748 1.11845
upperneck -3.66707 -0.814828 1.46487
head 0.139893 -0.363148 0.243711
rclavicle -1.10325e-014 -6.55989e-015
rhumerus -21.601 3.49406 -84.7639
rradius 42.2456
rwrist -3.97818
rhand -20.9779 -8.77933
rfingers 7.12502
rthumb 5.39571 -38.6906
lclavicle -1.10325e-014 -6.55989e-015
lhumerus -23.9141 -7.98718 82.4826
lradius 42.1019
lwrist 24.3222
lhand -18.0249 11.2759
lfingers 7.12502
lthumb 8.24627 41.0949
rfemur -63.3409 -9.6922 20.3095
rtibia 111.875
rfoot -7.94017 -11.2871
rtoes 1.72415
lfemur -58.6529 -0.338648 -25.7505
ltibia 75.5967
lfoot -24.1526 13.3644
ltoes -4.40347
780
root 17.7382 13.8817 -5.81275 -107.306 89.758 -115.223
lowerback 29.6191 -1.41392 1.69764
upperback 5.81604 -0.807406 -0.457716
thorax -9.80652 -0.204237 -1.2409
lowerneck -7.72843 -0.615845 1.1274
upperneck -3.6034 -0.794539 1.43589
head 0.161442 -0.353311 0.233803
rclavicle 1.05853e-014 1.81888e-014
rhumerus -21.4988 3.58628 -84.7907
rradius 42.454
rwrist -3.99163
rhand -20.9543 -8.82921
rfingers 7.12502
rthumb 5.41848 -38.7399
lclavicle 1.05853e-014 1.81888e-014
lhumerus -23.8283 -8.00937 82.4
lradius 42.239
lwrist 24.3606
lhand -18.148 11.2466
lfingers 7.12502
lthumb 8.12749 41.0703
rfemur -64.6269 -9.53569 20.6017
rtibia 111.554
rfoot -9.62343 -11.2882
rtoes 0.491868
lfemur -58.1091 -0.492716 -25.8661
ltibia 76.0233
lfoot -24.7955 13.8436
ltoes -4.7266
781
root 17.8632 13.868 -5.82831 -72.8128 89.8546 -80.5867
lowerback 29.6098 -1.40141 1.62288
upperback 5.83008 -0.815573 -0.472495
thorax -9.78524 -0.20569 -1.21138
lowerneck -7.7384 -0.599989 1.13682
upperneck -3.54791 -0.776565 1.41547
head 0.180063 -0.344581 0.226385
rclavicle -5.96354e-016 -3.62782e-014
rhumerus -21.4119 3.66955 -84.8236
rradius 42.6528
rwrist -3.9933
rhand -20.9856 -8.82494
rfingers 7.12502
rthumb 5.38825 -38.7364
lclavicle -5.96354e-016 -3.62782e-014
lhumerus -23.7424 -8.04494 82.3218
lradius 42.3727
lwrist 24.3928
lhand -18.2508 11.2109
lfingers 7.12502
lthumb 8.02829 41.0384
rfemur -65.8784 -9.31112 20.8664
rtibia 111.045
rfoot -11.1074 -11.1494
rtoes -0.801669
lfemur -57.5606 -0.624122 -26.002
ltibia 76.4243
lfoot -25.4283 14.2825
ltoes -5.043
782
root 17.9874 13.855 -5.84335 -15.1809 89.8436 -22.8146
lowerback 29.6103 -1.39225 1.55112
upperback 5.84545 -0.827029 -0.491464
thorax -9.76751 -0.208678 -1.18711
lowerneck -7.74597 -0.588153 1.13641
upperneck -3.50249 -0.762584 1.41373
head 0.195344 -0.337582 0.226175
rclavicle -9.44227e-016 2.98177e-016
rhumerus -21.335 3.74227 -84.86
rradius 42.8495
rwrist -4.01678
rhand -21.0385 -8.8074
rfingers 7.12502
rthumb 5.33722 -38.7202
lclavicle -9.44227e-016 2.98177e-016
lhumerus -23.6492 -8.08036 82.2493
lradius 42.4995
lwrist 24.4079
lhand -18.3217 11.1765
lfingers 7.12502
lthumb 7.95988 41.0066
rfemur -67.0763 -9.03263 21.0998
rtibia 110.347
rfoot -12.4228 -10.9057
rtoes -2.17812
lfemur -57.0038 -0.730164 -26.1556
ltibia 76.7965
lfoot -26.0524 14.6712
ltoes -5.32866
783
root 18.1112 13.8432 -5.858 12.8343 89.7395 5.34694
lowerback 29.6257 -1.38742 1.48592
upperback 5.86602 -0.841204 -0.512823
thorax -9.75137 -0.212784 -1.16832
lowerneck -7.75425 -0.575197 1.13682
upperneck -3.46874 -0.746676 1.41489
head 0.207143 -0.329568 0.22678
rclavicle -9.0447e-015 -1.2921e-014
rhumerus -21.2658 3.80486 -84.8986
rradius 43.0432
rwrist -4.05171
rhand -21.0949 -8.7989
rfingers 7.12502
rthumb 5.28267 -38.7131
lclavicle -9.0447e-015 -1.2921e-014
lhumerus -23.5512 -8.10924 82.1847
lradius 42.6213
lwrist 24.4087
lhand -18.3641 11.1394
lfingers 7.12502
lthumb 7.91894 40.9711
rfemur -68.1936 -8.71152 21.302
rtibia 109.458
rfoot -13.5863 -10.6087
rtoes -3.54972
lfemur -56.4231 -0.807465 -26.3214
ltibia 77.1349
lfoot -26.6524 15.0306
ltoes -5.6477
784
root 18.2345 13.8326 -5.872 23.5304 89.6174 16.1929
lowerback 29.6584 -1.38691 1.42942
upperback 5.88897 -0.85746 -0.53497
thorax -9.7412 -0.217873 -1.15468
lowerneck -7.75878 -0.560841 1.13431
upperneck -3.44854 -0.728065 1.4215
head 0.214167 -0.320133 0.229611
rclavicle -2.48481e-015 1.02374e-014
rhumerus -21.2099 3.86191 -84.9415
rradius 43.2355
rwrist -4.11752
rhand -21.1574 -8.79009
rfingers 7.12502
rthumb 5.22238 -38.7057
lclavicle -2.48481e-015 1.02374e-014
lhumerus -23.4528 -8.13067 82.1277
lradius 42.7402
lwrist 24.4036
lhand -18.3858 11.1089
lfingers 7.12502
lthumb 7.89798 40.9414
rfemur -69.2266 -8.36032 21.4786
rtibia 108.384
rfoot -14.6102 -10.3062
rtoes -4.85081
lfemur -55.821 -0.853648 -26.4918
ltibia 77.4379
lfoot -27.2324 15.353
ltoes -5.97901
785
root 18.3573 13.8239 -5.88537 28.1699 89.5008 20.9816
lowerback 29.7015 -1.3917 1.38844
upperback 5.91581 -0.874746 -0.554769
thorax -9.7319 -0.223563 -1.14696
lowerneck -7.76149 -0.54326 1.14277
upperneck -3.44458 -0.705474 1.41637
head 0.215738 -0.308931 0.2272
rclavicle 1.41137e-014 2.76311e-014
rhumerus -21.1608 3.91252 -84.9836
rradius 43.428
rwrist -4.20463
rhand -21.1855 -8.82211
rfingers 7.12502
rthumb 5.19528 -38.7384
lclavicle 1.41137e-014 2.76311e-014
lhumerus -23.3501 -8.14579 82.0794
lradius 42.8552
lwrist 24.4056
lhand -18.3971 11.0782
lfingers 7.12502
lthumb 7.88709 40.9111
rfemur -70.1679 -7.98726 21.6373
rtibia 107.129
rfoot -15.5122 -10.0403
rtoes -5.8972
lfemur -55.2011 -0.868695 -26.6553
ltibia 77.704
lfoot -27.804 15.6317
ltoes -6.2938
786
root 18.4795 13.8175 -5.89799 30.2017 89.3952 23.159
lowerback 29.7538 -1.40098 1.36274
upperback 5.94453 -0.892153 -0.570626
thorax -9.72513 -0.229516 -1.14358
lowerneck -7.75845 -0.522496 1.15352
upperneck -3.45669 -0.67823 1.40449
head 0.211334 -0.295531 0.222503
rclavicle 1.83876e-015 -3.97569e-015
rhumerus -21.1212 3.96399 -85.0255
rradius 43.6107
rwrist -4.29384
rhand -21.19 -8.87307
rfingers 7.12502
rthumb 5.19094 -38.7895
lclavicle 1.83876e-015 -3.97569e-015
lhumerus -23.2491 -8.15413 82.0414
lradius 42.9679
lwrist 24.4265
lhand -18.4051 11.0453
lfingers 7.12502
lthumb 7.87938 40.8784
rfemur -71.0143 -7.60207 21.7811
rtibia 105.699
rfoot -16.2974 -9.84828
rtoes -6.77688
lfemur -54.5665 -0.851977 -26.8064
ltibia 77.932
lfoot -28.3665 15.8628
ltoes -6.58326
787
root 18.601 13.814 -5.90995 30.2917 89.3064 23.3876
lowerback 29.8112 -1.41589 1.36057
upperback 5.97424 -0.90853 -0.579755
thorax -9.71994 -0.235454 -1.14657
lowerneck -7.74455 -0.497052 1.17333
upperneck -3.48698 -0.644851 1.37802
head 0.199411 -0.279386 0.212071
rclavicle -6.01324e-015 -2.98177e-015
rhumerus -21.091 4.01886 -85.0666
rradius 43.7734
rwrist -4.36414
rhand -21.1901 -8.91828
rfingers 7.12502
rthumb 5.19077 -38.8347
lclavicle -6.01324e-015 -2.98177e-015
lhumerus -23.1508 -8.15576 82.0153
lradius 43.0764
lwrist 24.4752
lhand -18.4108 11.0176
lfingers 7.12502
lthumb 7.87382 40.851
rfemur -71.7613 -7.21333 21.9202
rtibia 104.1
rfoot -16.9901 -9.73859
rtoes -7.42862
lfemur -53.9228 -0.799111 -26.9354
ltibia 78.1226
lfoot -28.9208 16.0387
ltoes -6.82986
788
root 18.7218 13.8136 -5.92113 29.2456 89.2327 22.4662
lowerback 29.8649 -1.43461 1.37782
upperback 6.00421 -0.923195 -0.582359
thorax -9.71281 -0.241043 -1.15406
lowerneck -7.72551 -0.468923 1.1965
upperneck -3.52779 -0.607821 1.34264
head 0.183353 -0.261571 0.198489
rclavicle 9.39258e-015 1.98785e-016
rhumerus -21.0677 4.07658 -85.1053
rradius 43.9236
rwrist -4.4326
rhand -21.1654 -8.97971
rfingers 7.12502
rthumb 5.21465 -38.8955
lclavicle 9.39258e-015 1.98785e-016
lhumerus -23.0518 -8.14818 82.0016
lradius 43.1752
lwrist 24.552
lhand -18.4146 10.9914
lfingers 7.12502
lthumb 7.87016 40.8249
rfemur -72.4123 -6.82835 22.0527
rtibia 102.34
rfoot -17.6009 -9.7109
rtoes -7.97396
lfemur -53.279 -0.709989 -27.042
ltibia 78.2747
lfoot -29.4676 16.1423
ltoes -6.99345
789
root 18.8416 13.8165 -5.93162 27.5516 89.1792 20.8791
lowerback 29.9104 -1.46143 1.41686
upperback 6.03299 -0.941084 -0.578141
thorax -9.70333 -0.248712 -1.16526
lowerneck -7.70032 -0.436608 1.21947
upperneck -3.57641 -0.56496 1.29949
head 0.163879 -0.240947 0.182728
rclavicle 1.00386e-014 -1.2424e-015
rhumerus -21.052 4.14638 -85.1431
rradius 44.0436
rwrist -4.46318
rhand -21.162 -8.99939
rfingers 7.12502
rthumb 5.21793 -38.9151
lclavicle 1.00386e-014 -1.2424e-015
lhumerus -22.962 -8.13246 81.9996
lradius 43.2732
lwrist 24.6635
lhand -18.4211 10.9813
lfingers 7.12502
lthumb 7.86389 40.815
rfemur -72.9671 -6.46057 22.1751
rtibia 100.427
rfoot -18.1443 -9.74145
rtoes -8.45352
lfemur -52.64 -0.590667 -27.1267
ltibia 78.3887
lfoot -29.9878 16.183
ltoes -7.1224
790
root 18.9607 13.8221 -5.94134 25.7596 89.1432 19.1715
lowerback 29.9403 -1.49486 1.47023
upperback 6.0604 -0.963129 -0.569685
thorax -9.68805 -0.258767 -1.17846
lowerneck -7.67616 -0.402701 1.24114
upperneck -3.62208 -0.520034 1.25366
head 0.145532 -0.219276 0.166406
rclavicle 7.05686e-015 1.94312e-014
rhumerus -21.043 4.22614 -85.181
rradius 44.1458
rwrist -4.50422
rhand -21.1723 -8.9964
rfingers 7.12502
rthumb 5.20796 -38.9124
lclavicle 7.05686e-015 1.94312e-014
lhumerus -22.8786 -8.11611 82.0077
lradius 43.3665
lwrist 24.8039
lhand -18.427 10.9716
lfingers 7.12502
lthumb 7.85819 40.8055
rfemur -73.4293 -6.11975 22.2814
rtibia 98.3744
rfoot -18.6287 -9.82098
rtoes -8.95205
lfemur -52.0098 -0.446284 -27.196
ltibia 78.4648
lfoot -30.4835 16.1524
ltoes -7.19987
791
root 19.0795 13.8305 -5.95039 23.919 89.1147 17.3958
lowerback 29.9557 -1.53256 1.53164
upperback 6.08631 -0.988683 -0.560202
thorax -9.66764 -0.270792 -1.19388
lowerneck -7.65708 -0.367009 1.2604
upperneck -3.65884 -0.4729 1.20854
head 0.130833 -0.196409 0.150723
rclavicle -5.1684e-015 -7.20594e-015
rhumerus -21.0364 4.31009 -85.2187
rradius 44.2281
rwrist -4.53429
rhand -21.1586 -9.00621
rfingers 7.12502
rthumb 5.22125 -38.9219
lclavicle -5.1684e-015 -7.20594e-015
lhumerus -22.8088 -8.10426 82.0234
lradius 43.4626
lwrist 24.9651
lhand -18.4308 10.9652
lfingers 7.12502
lthumb 7.85451 40.7993
rfemur -73.795 -5.80378 22.3649
rtibia 96.1925
rfoot -19.0544 -9.91935
rtoes -9.37203
lfemur -51.3828 -0.273742 -27.256
ltibia 78.5033
lfoot -30.946 16.0748
ltoes -7.28632
